<svg width="31" height="31" viewBox="0 0 31 31" fill="none" xmlns="http://www.w3.org/2000/svg">
<path d="M18.3299 11.7177C18.3299 13.4585 16.9187 14.8696 15.178 14.8696C13.4373 14.8696 12.0261 13.4585 12.0261 11.7177C12.0261 9.97702 13.4373 8.56588 15.178 8.56588C16.9187 8.56588 18.3299 9.97702 18.3299 11.7177Z" stroke="#6C767D" stroke-width="1.89112"/>
<path d="M16.7633 22.426C16.338 22.8355 15.7697 23.0645 15.1783 23.0645C14.5867 23.0645 14.0184 22.8355 13.5931 22.426C9.69919 18.6529 4.48081 14.4378 7.02566 8.31843C8.40162 5.00971 11.7046 2.89251 15.1783 2.89251C18.6519 2.89251 21.9548 5.00972 23.3308 8.31843C25.8724 14.4301 20.6668 18.6659 16.7633 22.426Z" stroke="#6C767D" stroke-width="1.89112"/>
<path d="M22.7425 25.586C22.7425 26.9786 19.3558 28.1075 15.178 28.1075C11.0003 28.1075 7.61353 26.9786 7.61353 25.586" stroke="#6C767D" stroke-width="1.89112" stroke-linecap="round"/>
</svg>
